<mxfile host="app.diagrams.net" agent="Mozilla/5.0 (Windows NT 10.0; Win64; x64) AppleWebKit/537.36 (KHTML, like Gecko) Chrome/132.0.0.0 Safari/537.36 Edg/132.0.0.0" version="26.0.6" pages="2">
  <diagram id="2wYpx1eaNTZQjs7z0a-F" name="运算器模块结构图">
    <mxGraphModel dx="1341" dy="832" grid="1" gridSize="10" guides="1" tooltips="1" connect="1" arrows="1" fold="1" page="1" pageScale="1" pageWidth="827" pageHeight="1169" math="0" shadow="0">
      <root>
        <mxCell id="0" />
        <mxCell id="1" parent="0" />
      </root>
    </mxGraphModel>
  </diagram>
  <diagram name="数据的独热表示" id="pwRDIyJF7iqzI1HNEuGT">
    <mxGraphModel dx="925" dy="574" grid="1" gridSize="10" guides="1" tooltips="1" connect="1" arrows="1" fold="1" page="1" pageScale="1" pageWidth="827" pageHeight="1169" math="0" shadow="0">
      <root>
        <mxCell id="0" />
        <mxCell id="1" parent="0" />
        <mxCell id="uRTIIYX-XJ4Sg4YyAZLi-1" value="" style="shape=table;startSize=0;container=1;collapsible=0;childLayout=tableLayout;fontSize=16;spacingTop=0;fillColor=#fff2cc;strokeColor=#d6b656;shadow=1;perimeterSpacing=1;swimlaneFillColor=none;" vertex="1" parent="1">
          <mxGeometry x="230" y="250" width="240" height="400" as="geometry" />
        </mxCell>
        <mxCell id="uRTIIYX-XJ4Sg4YyAZLi-2" value="" style="shape=tableRow;horizontal=0;startSize=0;swimlaneHead=0;swimlaneBody=0;strokeColor=#d6b656;top=0;left=0;bottom=0;right=0;collapsible=0;dropTarget=0;fillColor=#fff2cc;points=[[0,0.5],[1,0.5]];portConstraint=eastwest;fontSize=16;spacingTop=0;shadow=1;perimeterSpacing=1;" vertex="1" parent="uRTIIYX-XJ4Sg4YyAZLi-1">
          <mxGeometry width="240" height="40" as="geometry" />
        </mxCell>
        <mxCell id="uRTIIYX-XJ4Sg4YyAZLi-4" value="0" style="shape=partialRectangle;html=1;whiteSpace=wrap;connectable=0;strokeColor=#d6b656;overflow=hidden;fillColor=#fff2cc;top=0;left=0;bottom=0;right=0;pointerEvents=1;fontSize=16;spacingTop=0;shadow=1;perimeterSpacing=1;" vertex="1" parent="uRTIIYX-XJ4Sg4YyAZLi-2">
          <mxGeometry width="60" height="40" as="geometry">
            <mxRectangle width="60" height="40" as="alternateBounds" />
          </mxGeometry>
        </mxCell>
        <mxCell id="uRTIIYX-XJ4Sg4YyAZLi-5" value="0" style="shape=partialRectangle;html=1;whiteSpace=wrap;connectable=0;strokeColor=#d6b656;overflow=hidden;fillColor=#fff2cc;top=0;left=0;bottom=0;right=0;pointerEvents=1;fontSize=16;spacingTop=0;shadow=1;perimeterSpacing=1;" vertex="1" parent="uRTIIYX-XJ4Sg4YyAZLi-2">
          <mxGeometry x="60" width="60" height="40" as="geometry">
            <mxRectangle width="60" height="40" as="alternateBounds" />
          </mxGeometry>
        </mxCell>
        <mxCell id="uRTIIYX-XJ4Sg4YyAZLi-14" value="0" style="shape=partialRectangle;html=1;whiteSpace=wrap;connectable=0;strokeColor=#d6b656;overflow=hidden;fillColor=#fff2cc;top=0;left=0;bottom=0;right=0;pointerEvents=1;fontSize=16;spacingTop=0;shadow=1;perimeterSpacing=1;" vertex="1" parent="uRTIIYX-XJ4Sg4YyAZLi-2">
          <mxGeometry x="120" width="60" height="40" as="geometry">
            <mxRectangle width="60" height="40" as="alternateBounds" />
          </mxGeometry>
        </mxCell>
        <mxCell id="uRTIIYX-XJ4Sg4YyAZLi-17" value="0" style="shape=partialRectangle;html=1;whiteSpace=wrap;connectable=0;strokeColor=#d6b656;overflow=hidden;fillColor=#fff2cc;top=0;left=0;bottom=0;right=0;pointerEvents=1;fontSize=16;spacingTop=0;shadow=1;perimeterSpacing=1;" vertex="1" parent="uRTIIYX-XJ4Sg4YyAZLi-2">
          <mxGeometry x="180" width="60" height="40" as="geometry">
            <mxRectangle width="60" height="40" as="alternateBounds" />
          </mxGeometry>
        </mxCell>
        <mxCell id="uRTIIYX-XJ4Sg4YyAZLi-6" value="" style="shape=tableRow;horizontal=0;startSize=0;swimlaneHead=0;swimlaneBody=0;strokeColor=#d6b656;top=0;left=0;bottom=0;right=0;collapsible=0;dropTarget=0;fillColor=#fff2cc;points=[[0,0.5],[1,0.5]];portConstraint=eastwest;fontSize=16;spacingTop=0;shadow=1;perimeterSpacing=1;" vertex="1" parent="uRTIIYX-XJ4Sg4YyAZLi-1">
          <mxGeometry y="40" width="240" height="40" as="geometry" />
        </mxCell>
        <mxCell id="uRTIIYX-XJ4Sg4YyAZLi-8" value="0" style="shape=partialRectangle;html=1;whiteSpace=wrap;connectable=0;strokeColor=#d6b656;overflow=hidden;fillColor=#fff2cc;top=0;left=0;bottom=0;right=0;pointerEvents=1;fontSize=16;spacingTop=0;shadow=1;perimeterSpacing=1;" vertex="1" parent="uRTIIYX-XJ4Sg4YyAZLi-6">
          <mxGeometry width="60" height="40" as="geometry">
            <mxRectangle width="60" height="40" as="alternateBounds" />
          </mxGeometry>
        </mxCell>
        <mxCell id="uRTIIYX-XJ4Sg4YyAZLi-9" value="0" style="shape=partialRectangle;html=1;whiteSpace=wrap;connectable=0;strokeColor=#d6b656;overflow=hidden;fillColor=#fff2cc;top=0;left=0;bottom=0;right=0;pointerEvents=1;fontSize=16;spacingTop=0;shadow=1;perimeterSpacing=1;" vertex="1" parent="uRTIIYX-XJ4Sg4YyAZLi-6">
          <mxGeometry x="60" width="60" height="40" as="geometry">
            <mxRectangle width="60" height="40" as="alternateBounds" />
          </mxGeometry>
        </mxCell>
        <mxCell id="uRTIIYX-XJ4Sg4YyAZLi-15" value="0" style="shape=partialRectangle;html=1;whiteSpace=wrap;connectable=0;strokeColor=#d6b656;overflow=hidden;fillColor=#fff2cc;top=0;left=0;bottom=0;right=0;pointerEvents=1;fontSize=16;spacingTop=0;shadow=1;perimeterSpacing=1;" vertex="1" parent="uRTIIYX-XJ4Sg4YyAZLi-6">
          <mxGeometry x="120" width="60" height="40" as="geometry">
            <mxRectangle width="60" height="40" as="alternateBounds" />
          </mxGeometry>
        </mxCell>
        <mxCell id="uRTIIYX-XJ4Sg4YyAZLi-18" value="0" style="shape=partialRectangle;html=1;whiteSpace=wrap;connectable=0;strokeColor=#d6b656;overflow=hidden;fillColor=#fff2cc;top=0;left=0;bottom=0;right=0;pointerEvents=1;fontSize=16;spacingTop=0;shadow=1;perimeterSpacing=1;" vertex="1" parent="uRTIIYX-XJ4Sg4YyAZLi-6">
          <mxGeometry x="180" width="60" height="40" as="geometry">
            <mxRectangle width="60" height="40" as="alternateBounds" />
          </mxGeometry>
        </mxCell>
        <mxCell id="uRTIIYX-XJ4Sg4YyAZLi-10" value="" style="shape=tableRow;horizontal=0;startSize=0;swimlaneHead=0;swimlaneBody=0;strokeColor=#d6b656;top=0;left=0;bottom=0;right=0;collapsible=0;dropTarget=0;fillColor=#fff2cc;points=[[0,0.5],[1,0.5]];portConstraint=eastwest;fontSize=16;spacingTop=0;shadow=1;perimeterSpacing=1;" vertex="1" parent="uRTIIYX-XJ4Sg4YyAZLi-1">
          <mxGeometry y="80" width="240" height="40" as="geometry" />
        </mxCell>
        <mxCell id="uRTIIYX-XJ4Sg4YyAZLi-12" value="0" style="shape=partialRectangle;html=1;whiteSpace=wrap;connectable=0;strokeColor=#d6b656;overflow=hidden;fillColor=#fff2cc;top=0;left=0;bottom=0;right=0;pointerEvents=1;fontSize=16;spacingTop=0;shadow=1;perimeterSpacing=1;" vertex="1" parent="uRTIIYX-XJ4Sg4YyAZLi-10">
          <mxGeometry width="60" height="40" as="geometry">
            <mxRectangle width="60" height="40" as="alternateBounds" />
          </mxGeometry>
        </mxCell>
        <mxCell id="uRTIIYX-XJ4Sg4YyAZLi-13" value="0" style="shape=partialRectangle;html=1;whiteSpace=wrap;connectable=0;strokeColor=#d6b656;overflow=hidden;fillColor=#fff2cc;top=0;left=0;bottom=0;right=0;pointerEvents=1;fontSize=16;spacingTop=0;shadow=1;perimeterSpacing=1;" vertex="1" parent="uRTIIYX-XJ4Sg4YyAZLi-10">
          <mxGeometry x="60" width="60" height="40" as="geometry">
            <mxRectangle width="60" height="40" as="alternateBounds" />
          </mxGeometry>
        </mxCell>
        <mxCell id="uRTIIYX-XJ4Sg4YyAZLi-16" value="1" style="shape=partialRectangle;html=1;whiteSpace=wrap;connectable=0;strokeColor=#b46504;overflow=hidden;fillColor=#fad7ac;top=0;left=0;bottom=0;right=0;pointerEvents=1;fontSize=16;spacingTop=0;shadow=1;perimeterSpacing=1;" vertex="1" parent="uRTIIYX-XJ4Sg4YyAZLi-10">
          <mxGeometry x="120" width="60" height="40" as="geometry">
            <mxRectangle width="60" height="40" as="alternateBounds" />
          </mxGeometry>
        </mxCell>
        <mxCell id="uRTIIYX-XJ4Sg4YyAZLi-19" value="0" style="shape=partialRectangle;html=1;whiteSpace=wrap;connectable=0;strokeColor=#d6b656;overflow=hidden;fillColor=#fff2cc;top=0;left=0;bottom=0;right=0;pointerEvents=1;fontSize=16;spacingTop=0;shadow=1;perimeterSpacing=1;" vertex="1" parent="uRTIIYX-XJ4Sg4YyAZLi-10">
          <mxGeometry x="180" width="60" height="40" as="geometry">
            <mxRectangle width="60" height="40" as="alternateBounds" />
          </mxGeometry>
        </mxCell>
        <mxCell id="uRTIIYX-XJ4Sg4YyAZLi-20" style="shape=tableRow;horizontal=0;startSize=0;swimlaneHead=0;swimlaneBody=0;strokeColor=#d6b656;top=0;left=0;bottom=0;right=0;collapsible=0;dropTarget=0;fillColor=#fff2cc;points=[[0,0.5],[1,0.5]];portConstraint=eastwest;fontSize=16;spacingTop=0;shadow=1;perimeterSpacing=1;" vertex="1" parent="uRTIIYX-XJ4Sg4YyAZLi-1">
          <mxGeometry y="120" width="240" height="40" as="geometry" />
        </mxCell>
        <mxCell id="uRTIIYX-XJ4Sg4YyAZLi-22" value="0" style="shape=partialRectangle;html=1;whiteSpace=wrap;connectable=0;strokeColor=#d6b656;overflow=hidden;fillColor=#fff2cc;top=0;left=0;bottom=0;right=0;pointerEvents=1;fontSize=16;spacingTop=0;shadow=1;perimeterSpacing=1;" vertex="1" parent="uRTIIYX-XJ4Sg4YyAZLi-20">
          <mxGeometry width="60" height="40" as="geometry">
            <mxRectangle width="60" height="40" as="alternateBounds" />
          </mxGeometry>
        </mxCell>
        <mxCell id="uRTIIYX-XJ4Sg4YyAZLi-23" value="0" style="shape=partialRectangle;html=1;whiteSpace=wrap;connectable=0;strokeColor=#d6b656;overflow=hidden;fillColor=#fff2cc;top=0;left=0;bottom=0;right=0;pointerEvents=1;fontSize=16;spacingTop=0;shadow=1;perimeterSpacing=1;" vertex="1" parent="uRTIIYX-XJ4Sg4YyAZLi-20">
          <mxGeometry x="60" width="60" height="40" as="geometry">
            <mxRectangle width="60" height="40" as="alternateBounds" />
          </mxGeometry>
        </mxCell>
        <mxCell id="uRTIIYX-XJ4Sg4YyAZLi-24" value="0" style="shape=partialRectangle;html=1;whiteSpace=wrap;connectable=0;strokeColor=#d6b656;overflow=hidden;fillColor=#fff2cc;top=0;left=0;bottom=0;right=0;pointerEvents=1;fontSize=16;spacingTop=0;shadow=1;perimeterSpacing=1;" vertex="1" parent="uRTIIYX-XJ4Sg4YyAZLi-20">
          <mxGeometry x="120" width="60" height="40" as="geometry">
            <mxRectangle width="60" height="40" as="alternateBounds" />
          </mxGeometry>
        </mxCell>
        <mxCell id="uRTIIYX-XJ4Sg4YyAZLi-25" value="0" style="shape=partialRectangle;html=1;whiteSpace=wrap;connectable=0;strokeColor=#d6b656;overflow=hidden;fillColor=#fff2cc;top=0;left=0;bottom=0;right=0;pointerEvents=1;fontSize=16;spacingTop=0;shadow=1;perimeterSpacing=1;" vertex="1" parent="uRTIIYX-XJ4Sg4YyAZLi-20">
          <mxGeometry x="180" width="60" height="40" as="geometry">
            <mxRectangle width="60" height="40" as="alternateBounds" />
          </mxGeometry>
        </mxCell>
        <mxCell id="uRTIIYX-XJ4Sg4YyAZLi-26" style="shape=tableRow;horizontal=0;startSize=0;swimlaneHead=0;swimlaneBody=0;strokeColor=#d6b656;top=0;left=0;bottom=0;right=0;collapsible=0;dropTarget=0;fillColor=#fff2cc;points=[[0,0.5],[1,0.5]];portConstraint=eastwest;fontSize=16;spacingTop=0;shadow=1;perimeterSpacing=1;" vertex="1" parent="uRTIIYX-XJ4Sg4YyAZLi-1">
          <mxGeometry y="160" width="240" height="40" as="geometry" />
        </mxCell>
        <mxCell id="uRTIIYX-XJ4Sg4YyAZLi-28" value="0" style="shape=partialRectangle;html=1;whiteSpace=wrap;connectable=0;strokeColor=#d6b656;overflow=hidden;fillColor=#fff2cc;top=0;left=0;bottom=0;right=0;pointerEvents=1;fontSize=16;spacingTop=0;shadow=1;perimeterSpacing=1;" vertex="1" parent="uRTIIYX-XJ4Sg4YyAZLi-26">
          <mxGeometry width="60" height="40" as="geometry">
            <mxRectangle width="60" height="40" as="alternateBounds" />
          </mxGeometry>
        </mxCell>
        <mxCell id="uRTIIYX-XJ4Sg4YyAZLi-29" value="0" style="shape=partialRectangle;html=1;whiteSpace=wrap;connectable=0;strokeColor=#d6b656;overflow=hidden;fillColor=#fff2cc;top=0;left=0;bottom=0;right=0;pointerEvents=1;fontSize=16;spacingTop=0;shadow=1;perimeterSpacing=1;" vertex="1" parent="uRTIIYX-XJ4Sg4YyAZLi-26">
          <mxGeometry x="60" width="60" height="40" as="geometry">
            <mxRectangle width="60" height="40" as="alternateBounds" />
          </mxGeometry>
        </mxCell>
        <mxCell id="uRTIIYX-XJ4Sg4YyAZLi-30" value="0" style="shape=partialRectangle;html=1;whiteSpace=wrap;connectable=0;strokeColor=#d6b656;overflow=hidden;fillColor=#fff2cc;top=0;left=0;bottom=0;right=0;pointerEvents=1;fontSize=16;spacingTop=0;shadow=1;perimeterSpacing=1;" vertex="1" parent="uRTIIYX-XJ4Sg4YyAZLi-26">
          <mxGeometry x="120" width="60" height="40" as="geometry">
            <mxRectangle width="60" height="40" as="alternateBounds" />
          </mxGeometry>
        </mxCell>
        <mxCell id="uRTIIYX-XJ4Sg4YyAZLi-31" value="1" style="shape=partialRectangle;html=1;whiteSpace=wrap;connectable=0;strokeColor=#b46504;overflow=hidden;fillColor=#fad7ac;top=0;left=0;bottom=0;right=0;pointerEvents=1;fontSize=16;spacingTop=0;shadow=1;perimeterSpacing=1;" vertex="1" parent="uRTIIYX-XJ4Sg4YyAZLi-26">
          <mxGeometry x="180" width="60" height="40" as="geometry">
            <mxRectangle width="60" height="40" as="alternateBounds" />
          </mxGeometry>
        </mxCell>
        <mxCell id="uRTIIYX-XJ4Sg4YyAZLi-32" style="shape=tableRow;horizontal=0;startSize=0;swimlaneHead=0;swimlaneBody=0;strokeColor=#d6b656;top=0;left=0;bottom=0;right=0;collapsible=0;dropTarget=0;fillColor=#fff2cc;points=[[0,0.5],[1,0.5]];portConstraint=eastwest;fontSize=16;spacingTop=0;shadow=1;perimeterSpacing=1;" vertex="1" parent="uRTIIYX-XJ4Sg4YyAZLi-1">
          <mxGeometry y="200" width="240" height="40" as="geometry" />
        </mxCell>
        <mxCell id="uRTIIYX-XJ4Sg4YyAZLi-34" value="1" style="shape=partialRectangle;html=1;whiteSpace=wrap;connectable=0;strokeColor=#b46504;overflow=hidden;fillColor=#fad7ac;top=0;left=0;bottom=0;right=0;pointerEvents=1;fontSize=16;spacingTop=0;shadow=1;perimeterSpacing=1;" vertex="1" parent="uRTIIYX-XJ4Sg4YyAZLi-32">
          <mxGeometry width="60" height="40" as="geometry">
            <mxRectangle width="60" height="40" as="alternateBounds" />
          </mxGeometry>
        </mxCell>
        <mxCell id="uRTIIYX-XJ4Sg4YyAZLi-35" value="0" style="shape=partialRectangle;html=1;whiteSpace=wrap;connectable=0;strokeColor=#d6b656;overflow=hidden;fillColor=#fff2cc;top=0;left=0;bottom=0;right=0;pointerEvents=1;fontSize=16;spacingTop=0;shadow=1;perimeterSpacing=1;" vertex="1" parent="uRTIIYX-XJ4Sg4YyAZLi-32">
          <mxGeometry x="60" width="60" height="40" as="geometry">
            <mxRectangle width="60" height="40" as="alternateBounds" />
          </mxGeometry>
        </mxCell>
        <mxCell id="uRTIIYX-XJ4Sg4YyAZLi-36" value="0" style="shape=partialRectangle;html=1;whiteSpace=wrap;connectable=0;strokeColor=#d6b656;overflow=hidden;fillColor=#fff2cc;top=0;left=0;bottom=0;right=0;pointerEvents=1;fontSize=16;spacingTop=0;shadow=1;perimeterSpacing=1;" vertex="1" parent="uRTIIYX-XJ4Sg4YyAZLi-32">
          <mxGeometry x="120" width="60" height="40" as="geometry">
            <mxRectangle width="60" height="40" as="alternateBounds" />
          </mxGeometry>
        </mxCell>
        <mxCell id="uRTIIYX-XJ4Sg4YyAZLi-37" value="0" style="shape=partialRectangle;html=1;whiteSpace=wrap;connectable=0;strokeColor=#d6b656;overflow=hidden;fillColor=#fff2cc;top=0;left=0;bottom=0;right=0;pointerEvents=1;fontSize=16;spacingTop=0;shadow=1;perimeterSpacing=1;" vertex="1" parent="uRTIIYX-XJ4Sg4YyAZLi-32">
          <mxGeometry x="180" width="60" height="40" as="geometry">
            <mxRectangle width="60" height="40" as="alternateBounds" />
          </mxGeometry>
        </mxCell>
        <mxCell id="uRTIIYX-XJ4Sg4YyAZLi-38" style="shape=tableRow;horizontal=0;startSize=0;swimlaneHead=0;swimlaneBody=0;strokeColor=#d6b656;top=0;left=0;bottom=0;right=0;collapsible=0;dropTarget=0;fillColor=#fff2cc;points=[[0,0.5],[1,0.5]];portConstraint=eastwest;fontSize=16;spacingTop=0;shadow=1;perimeterSpacing=1;" vertex="1" parent="uRTIIYX-XJ4Sg4YyAZLi-1">
          <mxGeometry y="240" width="240" height="40" as="geometry" />
        </mxCell>
        <mxCell id="uRTIIYX-XJ4Sg4YyAZLi-40" value="0" style="shape=partialRectangle;html=1;whiteSpace=wrap;connectable=0;strokeColor=#d6b656;overflow=hidden;fillColor=#fff2cc;top=0;left=0;bottom=0;right=0;pointerEvents=1;fontSize=16;spacingTop=0;shadow=1;perimeterSpacing=1;" vertex="1" parent="uRTIIYX-XJ4Sg4YyAZLi-38">
          <mxGeometry width="60" height="40" as="geometry">
            <mxRectangle width="60" height="40" as="alternateBounds" />
          </mxGeometry>
        </mxCell>
        <mxCell id="uRTIIYX-XJ4Sg4YyAZLi-41" value="1" style="shape=partialRectangle;html=1;whiteSpace=wrap;connectable=0;strokeColor=#b46504;overflow=hidden;fillColor=#fad7ac;top=0;left=0;bottom=0;right=0;pointerEvents=1;fontSize=16;spacingTop=0;shadow=1;perimeterSpacing=1;" vertex="1" parent="uRTIIYX-XJ4Sg4YyAZLi-38">
          <mxGeometry x="60" width="60" height="40" as="geometry">
            <mxRectangle width="60" height="40" as="alternateBounds" />
          </mxGeometry>
        </mxCell>
        <mxCell id="uRTIIYX-XJ4Sg4YyAZLi-42" value="0" style="shape=partialRectangle;html=1;whiteSpace=wrap;connectable=0;strokeColor=#d6b656;overflow=hidden;fillColor=#fff2cc;top=0;left=0;bottom=0;right=0;pointerEvents=1;fontSize=16;spacingTop=0;shadow=1;perimeterSpacing=1;" vertex="1" parent="uRTIIYX-XJ4Sg4YyAZLi-38">
          <mxGeometry x="120" width="60" height="40" as="geometry">
            <mxRectangle width="60" height="40" as="alternateBounds" />
          </mxGeometry>
        </mxCell>
        <mxCell id="uRTIIYX-XJ4Sg4YyAZLi-43" value="0" style="shape=partialRectangle;html=1;whiteSpace=wrap;connectable=0;strokeColor=#d6b656;overflow=hidden;fillColor=#fff2cc;top=0;left=0;bottom=0;right=0;pointerEvents=1;fontSize=16;spacingTop=0;shadow=1;perimeterSpacing=1;" vertex="1" parent="uRTIIYX-XJ4Sg4YyAZLi-38">
          <mxGeometry x="180" width="60" height="40" as="geometry">
            <mxRectangle width="60" height="40" as="alternateBounds" />
          </mxGeometry>
        </mxCell>
        <mxCell id="uRTIIYX-XJ4Sg4YyAZLi-44" style="shape=tableRow;horizontal=0;startSize=0;swimlaneHead=0;swimlaneBody=0;strokeColor=#d6b656;top=0;left=0;bottom=0;right=0;collapsible=0;dropTarget=0;fillColor=#fff2cc;points=[[0,0.5],[1,0.5]];portConstraint=eastwest;fontSize=16;spacingTop=0;shadow=1;perimeterSpacing=1;" vertex="1" parent="uRTIIYX-XJ4Sg4YyAZLi-1">
          <mxGeometry y="280" width="240" height="40" as="geometry" />
        </mxCell>
        <mxCell id="uRTIIYX-XJ4Sg4YyAZLi-46" value="0" style="shape=partialRectangle;html=1;whiteSpace=wrap;connectable=0;strokeColor=#d6b656;overflow=hidden;fillColor=#fff2cc;top=0;left=0;bottom=0;right=0;pointerEvents=1;fontSize=16;spacingTop=0;shadow=1;perimeterSpacing=1;" vertex="1" parent="uRTIIYX-XJ4Sg4YyAZLi-44">
          <mxGeometry width="60" height="40" as="geometry">
            <mxRectangle width="60" height="40" as="alternateBounds" />
          </mxGeometry>
        </mxCell>
        <mxCell id="uRTIIYX-XJ4Sg4YyAZLi-47" value="0" style="shape=partialRectangle;html=1;whiteSpace=wrap;connectable=0;strokeColor=#d6b656;overflow=hidden;fillColor=#fff2cc;top=0;left=0;bottom=0;right=0;pointerEvents=1;fontSize=16;spacingTop=0;shadow=1;perimeterSpacing=1;" vertex="1" parent="uRTIIYX-XJ4Sg4YyAZLi-44">
          <mxGeometry x="60" width="60" height="40" as="geometry">
            <mxRectangle width="60" height="40" as="alternateBounds" />
          </mxGeometry>
        </mxCell>
        <mxCell id="uRTIIYX-XJ4Sg4YyAZLi-48" value="0" style="shape=partialRectangle;html=1;whiteSpace=wrap;connectable=0;strokeColor=#d6b656;overflow=hidden;fillColor=#fff2cc;top=0;left=0;bottom=0;right=0;pointerEvents=1;fontSize=16;spacingTop=0;shadow=1;perimeterSpacing=1;" vertex="1" parent="uRTIIYX-XJ4Sg4YyAZLi-44">
          <mxGeometry x="120" width="60" height="40" as="geometry">
            <mxRectangle width="60" height="40" as="alternateBounds" />
          </mxGeometry>
        </mxCell>
        <mxCell id="uRTIIYX-XJ4Sg4YyAZLi-49" value="0" style="shape=partialRectangle;html=1;whiteSpace=wrap;connectable=0;strokeColor=#d6b656;overflow=hidden;fillColor=#fff2cc;top=0;left=0;bottom=0;right=0;pointerEvents=1;fontSize=16;spacingTop=0;shadow=1;perimeterSpacing=1;" vertex="1" parent="uRTIIYX-XJ4Sg4YyAZLi-44">
          <mxGeometry x="180" width="60" height="40" as="geometry">
            <mxRectangle width="60" height="40" as="alternateBounds" />
          </mxGeometry>
        </mxCell>
        <mxCell id="uRTIIYX-XJ4Sg4YyAZLi-50" style="shape=tableRow;horizontal=0;startSize=0;swimlaneHead=0;swimlaneBody=0;strokeColor=#d6b656;top=0;left=0;bottom=0;right=0;collapsible=0;dropTarget=0;fillColor=#fff2cc;points=[[0,0.5],[1,0.5]];portConstraint=eastwest;fontSize=16;spacingTop=0;shadow=1;perimeterSpacing=1;" vertex="1" parent="uRTIIYX-XJ4Sg4YyAZLi-1">
          <mxGeometry y="320" width="240" height="40" as="geometry" />
        </mxCell>
        <mxCell id="uRTIIYX-XJ4Sg4YyAZLi-52" value="0" style="shape=partialRectangle;html=1;whiteSpace=wrap;connectable=0;strokeColor=#d6b656;overflow=hidden;fillColor=#fff2cc;top=0;left=0;bottom=0;right=0;pointerEvents=1;fontSize=16;spacingTop=0;shadow=1;perimeterSpacing=1;" vertex="1" parent="uRTIIYX-XJ4Sg4YyAZLi-50">
          <mxGeometry width="60" height="40" as="geometry">
            <mxRectangle width="60" height="40" as="alternateBounds" />
          </mxGeometry>
        </mxCell>
        <mxCell id="uRTIIYX-XJ4Sg4YyAZLi-53" value="0" style="shape=partialRectangle;html=1;whiteSpace=wrap;connectable=0;strokeColor=#d6b656;overflow=hidden;fillColor=#fff2cc;top=0;left=0;bottom=0;right=0;pointerEvents=1;fontSize=16;spacingTop=0;shadow=1;perimeterSpacing=1;" vertex="1" parent="uRTIIYX-XJ4Sg4YyAZLi-50">
          <mxGeometry x="60" width="60" height="40" as="geometry">
            <mxRectangle width="60" height="40" as="alternateBounds" />
          </mxGeometry>
        </mxCell>
        <mxCell id="uRTIIYX-XJ4Sg4YyAZLi-54" value="0" style="shape=partialRectangle;html=1;whiteSpace=wrap;connectable=0;strokeColor=#d6b656;overflow=hidden;fillColor=#fff2cc;top=0;left=0;bottom=0;right=0;pointerEvents=1;fontSize=16;spacingTop=0;shadow=1;perimeterSpacing=1;" vertex="1" parent="uRTIIYX-XJ4Sg4YyAZLi-50">
          <mxGeometry x="120" width="60" height="40" as="geometry">
            <mxRectangle width="60" height="40" as="alternateBounds" />
          </mxGeometry>
        </mxCell>
        <mxCell id="uRTIIYX-XJ4Sg4YyAZLi-55" value="0" style="shape=partialRectangle;html=1;whiteSpace=wrap;connectable=0;strokeColor=#d6b656;overflow=hidden;fillColor=#fff2cc;top=0;left=0;bottom=0;right=0;pointerEvents=1;fontSize=16;spacingTop=0;shadow=1;perimeterSpacing=1;" vertex="1" parent="uRTIIYX-XJ4Sg4YyAZLi-50">
          <mxGeometry x="180" width="60" height="40" as="geometry">
            <mxRectangle width="60" height="40" as="alternateBounds" />
          </mxGeometry>
        </mxCell>
        <mxCell id="uRTIIYX-XJ4Sg4YyAZLi-56" style="shape=tableRow;horizontal=0;startSize=0;swimlaneHead=0;swimlaneBody=0;strokeColor=#d6b656;top=0;left=0;bottom=0;right=0;collapsible=0;dropTarget=0;fillColor=#fff2cc;points=[[0,0.5],[1,0.5]];portConstraint=eastwest;fontSize=16;spacingTop=0;shadow=1;perimeterSpacing=1;" vertex="1" parent="uRTIIYX-XJ4Sg4YyAZLi-1">
          <mxGeometry y="360" width="240" height="40" as="geometry" />
        </mxCell>
        <mxCell id="uRTIIYX-XJ4Sg4YyAZLi-58" value="0" style="shape=partialRectangle;html=1;whiteSpace=wrap;connectable=0;strokeColor=#d6b656;overflow=hidden;fillColor=#fff2cc;top=0;left=0;bottom=0;right=0;pointerEvents=1;fontSize=16;spacingTop=0;shadow=1;perimeterSpacing=1;" vertex="1" parent="uRTIIYX-XJ4Sg4YyAZLi-56">
          <mxGeometry width="60" height="40" as="geometry">
            <mxRectangle width="60" height="40" as="alternateBounds" />
          </mxGeometry>
        </mxCell>
        <mxCell id="uRTIIYX-XJ4Sg4YyAZLi-59" value="0" style="shape=partialRectangle;html=1;whiteSpace=wrap;connectable=0;strokeColor=#d6b656;overflow=hidden;fillColor=#fff2cc;top=0;left=0;bottom=0;right=0;pointerEvents=1;fontSize=16;spacingTop=0;shadow=1;perimeterSpacing=1;" vertex="1" parent="uRTIIYX-XJ4Sg4YyAZLi-56">
          <mxGeometry x="60" width="60" height="40" as="geometry">
            <mxRectangle width="60" height="40" as="alternateBounds" />
          </mxGeometry>
        </mxCell>
        <mxCell id="uRTIIYX-XJ4Sg4YyAZLi-60" value="0" style="shape=partialRectangle;html=1;whiteSpace=wrap;connectable=0;strokeColor=#d6b656;overflow=hidden;fillColor=#fff2cc;top=0;left=0;bottom=0;right=0;pointerEvents=1;fontSize=16;spacingTop=0;shadow=1;perimeterSpacing=1;" vertex="1" parent="uRTIIYX-XJ4Sg4YyAZLi-56">
          <mxGeometry x="120" width="60" height="40" as="geometry">
            <mxRectangle width="60" height="40" as="alternateBounds" />
          </mxGeometry>
        </mxCell>
        <mxCell id="uRTIIYX-XJ4Sg4YyAZLi-61" value="0" style="shape=partialRectangle;html=1;whiteSpace=wrap;connectable=0;strokeColor=#d6b656;overflow=hidden;fillColor=#fff2cc;top=0;left=0;bottom=0;right=0;pointerEvents=1;fontSize=16;spacingTop=0;shadow=1;perimeterSpacing=1;" vertex="1" parent="uRTIIYX-XJ4Sg4YyAZLi-56">
          <mxGeometry x="180" width="60" height="40" as="geometry">
            <mxRectangle width="60" height="40" as="alternateBounds" />
          </mxGeometry>
        </mxCell>
        <mxCell id="uRTIIYX-XJ4Sg4YyAZLi-116" style="edgeStyle=orthogonalEdgeStyle;rounded=0;orthogonalLoop=1;jettySize=auto;html=1;entryX=0.5;entryY=0;entryDx=0;entryDy=0;strokeWidth=3;" edge="1" parent="1" source="uRTIIYX-XJ4Sg4YyAZLi-68" target="uRTIIYX-XJ4Sg4YyAZLi-1">
          <mxGeometry relative="1" as="geometry" />
        </mxCell>
        <mxCell id="uRTIIYX-XJ4Sg4YyAZLi-68" value="" style="shape=table;startSize=0;container=1;collapsible=0;childLayout=tableLayout;fontSize=16;shadow=1;" vertex="1" parent="1">
          <mxGeometry x="230" y="170" width="240" height="40" as="geometry" />
        </mxCell>
        <mxCell id="uRTIIYX-XJ4Sg4YyAZLi-69" value="" style="shape=tableRow;horizontal=0;startSize=0;swimlaneHead=0;swimlaneBody=0;strokeColor=inherit;top=0;left=0;bottom=0;right=0;collapsible=0;dropTarget=0;fillColor=none;points=[[0,0.5],[1,0.5]];portConstraint=eastwest;fontSize=16;shadow=1;" vertex="1" parent="uRTIIYX-XJ4Sg4YyAZLi-68">
          <mxGeometry width="240" height="40" as="geometry" />
        </mxCell>
        <mxCell id="uRTIIYX-XJ4Sg4YyAZLi-70" value="5" style="shape=partialRectangle;html=1;whiteSpace=wrap;connectable=0;strokeColor=inherit;overflow=hidden;fillColor=light-dark(#ffce96, #ededed);top=0;left=0;bottom=0;right=0;pointerEvents=1;fontSize=16;shadow=1;" vertex="1" parent="uRTIIYX-XJ4Sg4YyAZLi-69">
          <mxGeometry width="60" height="40" as="geometry">
            <mxRectangle width="60" height="40" as="alternateBounds" />
          </mxGeometry>
        </mxCell>
        <mxCell id="uRTIIYX-XJ4Sg4YyAZLi-71" value="6" style="shape=partialRectangle;html=1;whiteSpace=wrap;connectable=0;strokeColor=inherit;overflow=hidden;fillColor=light-dark(#ffc88d, #ededed);top=0;left=0;bottom=0;right=0;pointerEvents=1;fontSize=16;shadow=1;" vertex="1" parent="uRTIIYX-XJ4Sg4YyAZLi-69">
          <mxGeometry x="60" width="60" height="40" as="geometry">
            <mxRectangle width="60" height="40" as="alternateBounds" />
          </mxGeometry>
        </mxCell>
        <mxCell id="uRTIIYX-XJ4Sg4YyAZLi-72" value="2" style="shape=partialRectangle;html=1;whiteSpace=wrap;connectable=0;strokeColor=inherit;overflow=hidden;fillColor=light-dark(#ffe2b3, #ededed);top=0;left=0;bottom=0;right=0;pointerEvents=1;fontSize=16;shadow=1;" vertex="1" parent="uRTIIYX-XJ4Sg4YyAZLi-69">
          <mxGeometry x="120" width="60" height="40" as="geometry">
            <mxRectangle width="60" height="40" as="alternateBounds" />
          </mxGeometry>
        </mxCell>
        <mxCell id="uRTIIYX-XJ4Sg4YyAZLi-81" value="4" style="shape=partialRectangle;html=1;whiteSpace=wrap;connectable=0;strokeColor=inherit;overflow=hidden;fillColor=light-dark(#ffd6a2, #ededed);top=0;left=0;bottom=0;right=0;pointerEvents=1;fontSize=16;shadow=1;" vertex="1" parent="uRTIIYX-XJ4Sg4YyAZLi-69">
          <mxGeometry x="180" width="60" height="40" as="geometry">
            <mxRectangle width="60" height="40" as="alternateBounds" />
          </mxGeometry>
        </mxCell>
        <mxCell id="uRTIIYX-XJ4Sg4YyAZLi-118" style="edgeStyle=orthogonalEdgeStyle;rounded=0;orthogonalLoop=1;jettySize=auto;html=1;entryX=0;entryY=0.5;entryDx=0;entryDy=0;strokeWidth=3;" edge="1" parent="1" source="uRTIIYX-XJ4Sg4YyAZLi-82" target="uRTIIYX-XJ4Sg4YyAZLi-1">
          <mxGeometry relative="1" as="geometry" />
        </mxCell>
        <mxCell id="uRTIIYX-XJ4Sg4YyAZLi-82" value="" style="shape=table;startSize=0;container=1;collapsible=0;childLayout=tableLayout;fontSize=16;gradientColor=#FFB570;fillColor=#FFF2CC;shadow=1;" vertex="1" parent="1">
          <mxGeometry x="90" y="250" width="60" height="400" as="geometry" />
        </mxCell>
        <mxCell id="uRTIIYX-XJ4Sg4YyAZLi-83" value="" style="shape=tableRow;horizontal=0;startSize=0;swimlaneHead=0;swimlaneBody=0;strokeColor=inherit;top=0;left=0;bottom=0;right=0;collapsible=0;dropTarget=0;fillColor=none;points=[[0,0.5],[1,0.5]];portConstraint=eastwest;fontSize=16;shadow=1;" vertex="1" parent="uRTIIYX-XJ4Sg4YyAZLi-82">
          <mxGeometry width="60" height="40" as="geometry" />
        </mxCell>
        <mxCell id="uRTIIYX-XJ4Sg4YyAZLi-84" value="0" style="shape=partialRectangle;html=1;whiteSpace=wrap;connectable=0;strokeColor=inherit;overflow=hidden;fillColor=none;top=0;left=0;bottom=0;right=0;pointerEvents=1;fontSize=16;shadow=1;" vertex="1" parent="uRTIIYX-XJ4Sg4YyAZLi-83">
          <mxGeometry width="60" height="40" as="geometry">
            <mxRectangle width="60" height="40" as="alternateBounds" />
          </mxGeometry>
        </mxCell>
        <mxCell id="uRTIIYX-XJ4Sg4YyAZLi-87" value="" style="shape=tableRow;horizontal=0;startSize=0;swimlaneHead=0;swimlaneBody=0;strokeColor=inherit;top=0;left=0;bottom=0;right=0;collapsible=0;dropTarget=0;fillColor=none;points=[[0,0.5],[1,0.5]];portConstraint=eastwest;fontSize=16;shadow=1;" vertex="1" parent="uRTIIYX-XJ4Sg4YyAZLi-82">
          <mxGeometry y="40" width="60" height="40" as="geometry" />
        </mxCell>
        <mxCell id="uRTIIYX-XJ4Sg4YyAZLi-88" value="1" style="shape=partialRectangle;html=1;whiteSpace=wrap;connectable=0;strokeColor=inherit;overflow=hidden;fillColor=none;top=0;left=0;bottom=0;right=0;pointerEvents=1;fontSize=16;shadow=1;" vertex="1" parent="uRTIIYX-XJ4Sg4YyAZLi-87">
          <mxGeometry width="60" height="40" as="geometry">
            <mxRectangle width="60" height="40" as="alternateBounds" />
          </mxGeometry>
        </mxCell>
        <mxCell id="uRTIIYX-XJ4Sg4YyAZLi-91" value="" style="shape=tableRow;horizontal=0;startSize=0;swimlaneHead=0;swimlaneBody=0;strokeColor=inherit;top=0;left=0;bottom=0;right=0;collapsible=0;dropTarget=0;fillColor=none;points=[[0,0.5],[1,0.5]];portConstraint=eastwest;fontSize=16;shadow=1;" vertex="1" parent="uRTIIYX-XJ4Sg4YyAZLi-82">
          <mxGeometry y="80" width="60" height="40" as="geometry" />
        </mxCell>
        <mxCell id="uRTIIYX-XJ4Sg4YyAZLi-92" value="2" style="shape=partialRectangle;html=1;whiteSpace=wrap;connectable=0;strokeColor=inherit;overflow=hidden;fillColor=none;top=0;left=0;bottom=0;right=0;pointerEvents=1;fontSize=16;shadow=1;" vertex="1" parent="uRTIIYX-XJ4Sg4YyAZLi-91">
          <mxGeometry width="60" height="40" as="geometry">
            <mxRectangle width="60" height="40" as="alternateBounds" />
          </mxGeometry>
        </mxCell>
        <mxCell id="uRTIIYX-XJ4Sg4YyAZLi-95" style="shape=tableRow;horizontal=0;startSize=0;swimlaneHead=0;swimlaneBody=0;strokeColor=inherit;top=0;left=0;bottom=0;right=0;collapsible=0;dropTarget=0;fillColor=none;points=[[0,0.5],[1,0.5]];portConstraint=eastwest;fontSize=16;shadow=1;" vertex="1" parent="uRTIIYX-XJ4Sg4YyAZLi-82">
          <mxGeometry y="120" width="60" height="40" as="geometry" />
        </mxCell>
        <mxCell id="uRTIIYX-XJ4Sg4YyAZLi-96" value="3" style="shape=partialRectangle;html=1;whiteSpace=wrap;connectable=0;strokeColor=inherit;overflow=hidden;fillColor=none;top=0;left=0;bottom=0;right=0;pointerEvents=1;fontSize=16;shadow=1;" vertex="1" parent="uRTIIYX-XJ4Sg4YyAZLi-95">
          <mxGeometry width="60" height="40" as="geometry">
            <mxRectangle width="60" height="40" as="alternateBounds" />
          </mxGeometry>
        </mxCell>
        <mxCell id="uRTIIYX-XJ4Sg4YyAZLi-97" style="shape=tableRow;horizontal=0;startSize=0;swimlaneHead=0;swimlaneBody=0;strokeColor=inherit;top=0;left=0;bottom=0;right=0;collapsible=0;dropTarget=0;fillColor=none;points=[[0,0.5],[1,0.5]];portConstraint=eastwest;fontSize=16;shadow=1;" vertex="1" parent="uRTIIYX-XJ4Sg4YyAZLi-82">
          <mxGeometry y="160" width="60" height="40" as="geometry" />
        </mxCell>
        <mxCell id="uRTIIYX-XJ4Sg4YyAZLi-98" value="4" style="shape=partialRectangle;html=1;whiteSpace=wrap;connectable=0;strokeColor=inherit;overflow=hidden;fillColor=none;top=0;left=0;bottom=0;right=0;pointerEvents=1;fontSize=16;shadow=1;" vertex="1" parent="uRTIIYX-XJ4Sg4YyAZLi-97">
          <mxGeometry width="60" height="40" as="geometry">
            <mxRectangle width="60" height="40" as="alternateBounds" />
          </mxGeometry>
        </mxCell>
        <mxCell id="uRTIIYX-XJ4Sg4YyAZLi-99" style="shape=tableRow;horizontal=0;startSize=0;swimlaneHead=0;swimlaneBody=0;strokeColor=inherit;top=0;left=0;bottom=0;right=0;collapsible=0;dropTarget=0;fillColor=none;points=[[0,0.5],[1,0.5]];portConstraint=eastwest;fontSize=16;shadow=1;" vertex="1" parent="uRTIIYX-XJ4Sg4YyAZLi-82">
          <mxGeometry y="200" width="60" height="40" as="geometry" />
        </mxCell>
        <mxCell id="uRTIIYX-XJ4Sg4YyAZLi-100" value="5" style="shape=partialRectangle;html=1;whiteSpace=wrap;connectable=0;strokeColor=inherit;overflow=hidden;fillColor=none;top=0;left=0;bottom=0;right=0;pointerEvents=1;fontSize=16;shadow=1;" vertex="1" parent="uRTIIYX-XJ4Sg4YyAZLi-99">
          <mxGeometry width="60" height="40" as="geometry">
            <mxRectangle width="60" height="40" as="alternateBounds" />
          </mxGeometry>
        </mxCell>
        <mxCell id="uRTIIYX-XJ4Sg4YyAZLi-101" style="shape=tableRow;horizontal=0;startSize=0;swimlaneHead=0;swimlaneBody=0;strokeColor=inherit;top=0;left=0;bottom=0;right=0;collapsible=0;dropTarget=0;fillColor=none;points=[[0,0.5],[1,0.5]];portConstraint=eastwest;fontSize=16;shadow=1;" vertex="1" parent="uRTIIYX-XJ4Sg4YyAZLi-82">
          <mxGeometry y="240" width="60" height="40" as="geometry" />
        </mxCell>
        <mxCell id="uRTIIYX-XJ4Sg4YyAZLi-102" value="6" style="shape=partialRectangle;html=1;whiteSpace=wrap;connectable=0;strokeColor=inherit;overflow=hidden;fillColor=none;top=0;left=0;bottom=0;right=0;pointerEvents=1;fontSize=16;shadow=1;" vertex="1" parent="uRTIIYX-XJ4Sg4YyAZLi-101">
          <mxGeometry width="60" height="40" as="geometry">
            <mxRectangle width="60" height="40" as="alternateBounds" />
          </mxGeometry>
        </mxCell>
        <mxCell id="uRTIIYX-XJ4Sg4YyAZLi-103" style="shape=tableRow;horizontal=0;startSize=0;swimlaneHead=0;swimlaneBody=0;strokeColor=inherit;top=0;left=0;bottom=0;right=0;collapsible=0;dropTarget=0;fillColor=none;points=[[0,0.5],[1,0.5]];portConstraint=eastwest;fontSize=16;shadow=1;" vertex="1" parent="uRTIIYX-XJ4Sg4YyAZLi-82">
          <mxGeometry y="280" width="60" height="40" as="geometry" />
        </mxCell>
        <mxCell id="uRTIIYX-XJ4Sg4YyAZLi-104" value="7" style="shape=partialRectangle;html=1;whiteSpace=wrap;connectable=0;strokeColor=inherit;overflow=hidden;fillColor=none;top=0;left=0;bottom=0;right=0;pointerEvents=1;fontSize=16;shadow=1;" vertex="1" parent="uRTIIYX-XJ4Sg4YyAZLi-103">
          <mxGeometry width="60" height="40" as="geometry">
            <mxRectangle width="60" height="40" as="alternateBounds" />
          </mxGeometry>
        </mxCell>
        <mxCell id="uRTIIYX-XJ4Sg4YyAZLi-105" style="shape=tableRow;horizontal=0;startSize=0;swimlaneHead=0;swimlaneBody=0;strokeColor=inherit;top=0;left=0;bottom=0;right=0;collapsible=0;dropTarget=0;fillColor=none;points=[[0,0.5],[1,0.5]];portConstraint=eastwest;fontSize=16;shadow=1;" vertex="1" parent="uRTIIYX-XJ4Sg4YyAZLi-82">
          <mxGeometry y="320" width="60" height="40" as="geometry" />
        </mxCell>
        <mxCell id="uRTIIYX-XJ4Sg4YyAZLi-106" value="8" style="shape=partialRectangle;html=1;whiteSpace=wrap;connectable=0;strokeColor=inherit;overflow=hidden;fillColor=none;top=0;left=0;bottom=0;right=0;pointerEvents=1;fontSize=16;shadow=1;" vertex="1" parent="uRTIIYX-XJ4Sg4YyAZLi-105">
          <mxGeometry width="60" height="40" as="geometry">
            <mxRectangle width="60" height="40" as="alternateBounds" />
          </mxGeometry>
        </mxCell>
        <mxCell id="uRTIIYX-XJ4Sg4YyAZLi-107" style="shape=tableRow;horizontal=0;startSize=0;swimlaneHead=0;swimlaneBody=0;strokeColor=inherit;top=0;left=0;bottom=0;right=0;collapsible=0;dropTarget=0;fillColor=none;points=[[0,0.5],[1,0.5]];portConstraint=eastwest;fontSize=16;shadow=1;" vertex="1" parent="uRTIIYX-XJ4Sg4YyAZLi-82">
          <mxGeometry y="360" width="60" height="40" as="geometry" />
        </mxCell>
        <mxCell id="uRTIIYX-XJ4Sg4YyAZLi-108" value="9" style="shape=partialRectangle;html=1;whiteSpace=wrap;connectable=0;strokeColor=inherit;overflow=hidden;fillColor=none;top=0;left=0;bottom=0;right=0;pointerEvents=1;fontSize=16;shadow=1;" vertex="1" parent="uRTIIYX-XJ4Sg4YyAZLi-107">
          <mxGeometry width="60" height="40" as="geometry">
            <mxRectangle width="60" height="40" as="alternateBounds" />
          </mxGeometry>
        </mxCell>
        <mxCell id="uRTIIYX-XJ4Sg4YyAZLi-112" value="独热值表" style="text;html=1;align=center;verticalAlign=middle;whiteSpace=wrap;rounded=0;horizontal=1;textDirection=vertical-lr;fontStyle=1;fontSize=20;" vertex="1" parent="1">
          <mxGeometry x="30" y="402.5" width="60" height="95" as="geometry" />
        </mxCell>
        <mxCell id="uRTIIYX-XJ4Sg4YyAZLi-113" value="原始数据" style="text;html=1;align=center;verticalAlign=middle;whiteSpace=wrap;rounded=0;horizontal=1;textDirection=vertical-lr;fontStyle=1;fontSize=20;" vertex="1" parent="1">
          <mxGeometry x="170" y="142.5" width="60" height="95" as="geometry" />
        </mxCell>
        <mxCell id="uRTIIYX-XJ4Sg4YyAZLi-114" value="输入数据" style="text;html=1;align=center;verticalAlign=middle;whiteSpace=wrap;rounded=0;horizontal=1;textDirection=vertical-lr;fontStyle=1;fontSize=20;" vertex="1" parent="1">
          <mxGeometry x="470" y="402.5" width="60" height="95" as="geometry" />
        </mxCell>
      </root>
    </mxGraphModel>
  </diagram>
</mxfile>
